<svg width="40" height="40" viewBox="0 0 40 40" fill="none" xmlns="http://www.w3.org/2000/svg">
<circle cx="20" cy="20" r="19.5" fill="white" stroke="white" stroke-linejoin="round"/>
<path d="M28.7778 11H13.2222C11.9944 11 11 11.9944 11 13.2222V28.7778C11 30.0056 11.9944 31 13.2222 31H28.7778C30.0056 31 31 30.0056 31 28.7778V13.2222C31 11.9944 30.0056 11 28.7778 11ZM17.6667 25.1539C17.6667 25.928 17.0391 26.5556 16.265 26.5556C15.4909 26.5556 14.8633 25.928 14.8633 25.1539V20.1794C14.8633 19.4053 15.4909 18.7778 16.265 18.7778C17.0391 18.7778 17.6667 19.4053 17.6667 20.1794V25.1539ZM16.2156 17.3522C15.3589 17.3522 14.7867 16.7811 14.7867 16.0189C14.7867 15.2567 15.3578 14.6856 16.31 14.6856C17.1667 14.6856 17.7389 15.2567 17.7389 16.0189C17.7389 16.7811 17.1678 17.3522 16.2156 17.3522ZM27.6667 25.1989C27.6667 25.9482 27.0593 26.5556 26.31 26.5556C25.5607 26.5556 24.9533 25.9482 24.9533 25.1989V22.3044C24.9533 21.1289 24.23 20.8578 23.9589 20.8578C23.6878 20.8578 22.7833 21.0389 22.7833 22.3044C22.7833 22.4144 22.7833 23.9587 22.7833 25.1546C22.7833 25.9287 22.1558 26.5556 21.3817 26.5556C20.6075 26.5556 19.98 25.928 19.98 25.1539V20.1794C19.98 19.4053 20.6075 18.7778 21.3817 18.7778H22.5559C22.6815 18.7778 22.7833 18.8796 22.7833 19.0052C22.7833 19.2386 23.1679 19.3701 23.3608 19.2388C23.7799 18.9533 24.3793 18.7778 25.2244 18.7778C26.5811 18.7778 27.6667 19.8633 27.6667 22.3044V25.1989Z" fill="#434343"/>
</svg>
