<svg width="57" height="39" viewBox="0 0 57 39" fill="none" xmlns="http://www.w3.org/2000/svg">
<path d="M2.0623 24.28V21.7L14.6623 14.62V17.8L5.3923 22.87V23.11L14.6623 28.18V31.36L2.0623 24.28ZM26.3506 8.56H29.1106L20.3206 35.29H17.5606L26.3506 8.56ZM32.8826 28.18L42.1526 23.11V22.87L32.8826 17.8V14.62L45.4826 21.7V24.28L32.8826 31.36V28.18ZM52.4009 31.36C51.5209 31.36 50.8509 31.11 50.3909 30.61C49.9309 30.09 49.7009 29.47 49.7009 28.75V28.63C49.7009 27.91 49.9309 27.3 50.3909 26.8C50.8509 26.28 51.5209 26.02 52.4009 26.02C53.2809 26.02 53.9509 26.28 54.4109 26.8C54.8709 27.3 55.1009 27.91 55.1009 28.63V28.75C55.1009 29.47 54.8709 30.09 54.4109 30.61C53.9509 31.11 53.2809 31.36 52.4009 31.36Z" fill="white"/>
</svg>
