<svg width="40" height="40" viewBox="0 0 40 40" fill="none" xmlns="http://www.w3.org/2000/svg">
<circle cx="20" cy="20" r="20" fill="#141313" fill-opacity="0.05"/>
<path fill-rule="evenodd" clip-rule="evenodd" d="M14.1667 13.3333C12.786 13.3333 11.6667 14.4526 11.6667 15.8333V24.1666C11.6667 25.5474 12.786 26.6666 14.1667 26.6666H25.8334C27.2141 26.6666 28.3334 25.5474 28.3334 24.1666V15.8333C28.3334 14.4526 27.2141 13.3333 25.8334 13.3333H14.1667ZM13.4095 15.4849C13.5414 15.1987 13.8309 15 14.1667 15H25.8334C26.1693 15 26.4587 15.1987 26.5907 15.4849L20.5117 20.213C20.2108 20.4471 19.7894 20.4471 19.4885 20.213L13.4095 15.4849ZM13.3334 17.5372V22.3874L16.3439 19.8787L13.3334 17.5372ZM13.4025 24.4994C13.531 24.794 13.8248 25 14.1667 25H25.8334C26.1754 25 26.4692 24.794 26.5977 24.4994L22.3096 20.926L21.5349 21.5286C20.6322 22.2307 19.368 22.2308 18.4652 21.5286L17.6905 20.926L13.4025 24.4994ZM26.6667 22.3874V17.5372L23.6562 19.8787L26.6667 22.3874Z" fill="#141313"/>
</svg>
